<?xml version="1.0" encoding="utf-8"?>
<!-- Generator: Adobe Illustrator 28.3.0, SVG Export Plug-In . SVG Version: 6.00 Build 0)  -->
<svg version="1.1" id="Capa_2_00000090254074429501470800000001729246102567197830_"
	 xmlns="http://www.w3.org/2000/svg" xmlns:xlink="http://www.w3.org/1999/xlink" x="0px" y="0px" viewBox="0 0 1260.1 212.2"
	 style="enable-background:new 0 0 1260.1 212.2;" xml:space="preserve">
<style type="text/css">
	.st0{fill:#FFFFFF;}
</style>
<g id="Capa_1-2">
	<g>
		<path class="st0" d="M1259,88.3c-2.2-0.1-4.3-0.1-6.5-0.1c-4.6-0.1-9.4-0.1-14.1-0.4l-1.7-0.1c-12.4-0.6-25.3-1.3-37.8,1.8
			c-3.1,0.8-6.2,1.6-9.5,2.5l-0.1,0l44.6-37l-1-2.1l-1.4-0.2c-0.7-0.1-1.4-0.2-2.1-0.2l-26.9-0.7c-19.7-0.5-39.3-0.9-59-1.5
			c-3.2-0.1-3.8,1.5-4,3.8c-0.4,5.1-1,10.2-1.5,15.2l-0.2,2.3c-0.4,3.6-2.3,5.6-5.9,6c-0.2,0-0.3,0.1-0.5,0.1L1131,78
			c-13.8,1.8-26.2,7.7-36.9,17.5c-8.2,7.6-16.1,15.8-23.8,23.7c-2.2,2.3-4.5,4.7-6.7,7c-9.4,9.7-18.9,18.9-31,24.9
			c-8.3,4.1-16.7,6.1-25.4,6.2l0.8-1.6c5.3-10.6,8.3-18.9,10-27.2c1.5-7.4,2.4-16.2-1.6-24.9c-3.7-8.1-11.4-11.9-20-10
			c-8.9,2-12.4,9.2-14.2,14.6c-0.7,1.9-1.1,3.9-1.5,5.8c-0.1,0.4-0.2,0.8-0.3,1.2c-1-0.3-2-0.7-2.9-1c-2.8-1-5.8-2-8.8-2.6
			c-6.2-1.2-12.4,0.5-17.2,4.7c-4.6,4.1-7,9.8-6.5,15.7c0.5,7.3,5.5,11.7,10.2,15.1c6.6,4.7,14.4,8.1,23.7,10.3
			c5.2,1.2,10.4,2.2,15.8,3.1c1.9,0.3,3.8,0.7,5.7,1c-0.2,0.3-0.4,0.6-0.6,1c-1,1.7-2,3.5-3.2,5.2c-5.8,8.9-14,12.5-24.5,10.7
			c-4.1-0.7-8.2-1.7-12.2-2.7c-1.6-0.4-3.3-0.8-4.9-1.2c-2.4-0.6-4.8-1.2-7.2-1.8l0-0.1c-13.2-3.3-21.1-3.7-28.7-4
			c-2.5-0.1-5-0.2-7.5-0.5c-0.4,1.2-0.8,2.5-1.3,3.7c3,0.3,5.8,0.4,8.7,0.5c7.4,0.3,15,0.7,27.9,3.9l0-0.1c1.3,0.4,2.6,0.7,3.9,1
			c6.8,1.9,13.8,3.8,20.7,5.1c2,0.4,4,0.6,5.9,0.6c9,0,16.5-4.3,22-12.6c1.4-2.1,3-4.6,4.3-7.2c0.7-1.4,1.5-1.9,3.2-1.9
			c9.8,0,19.4-2.4,28.4-7.1c8.9-4.6,17.2-11.1,26.8-20.9c3.7-3.8,7.3-7.6,10.9-11.4c5.9-6.2,12.1-12.7,18.3-18.8
			c14.7-14.2,29.8-21.2,46.4-21.6c1.3,0,2.9-1.7,3.1-2.9c0.3-1.8,0.5-3.6,0.6-5.3c0.1-0.8,0.1-1.6,0.2-2.4c0.4-3.8,0.8-7.6,1.2-11.5
			l0.5-4.9l76.2,1.9l-14.1,4.5c-21.5,6.9-43,13.9-64.5,20.9c-1.6,0.5-3.3,1.9-4,3.2c-6.7,12.5-13.4,25.2-19.8,37.6l-2.1,4
			c-0.3,0.6-0.5,1.3-0.7,1.9c-0.1,0.3-0.2,0.5-0.2,0.8l-0.2,0.7l1.9,1.7l35.1-22.7l1,0.6c0.8,0.5,1.6,0.9,2.3,1.3
			c1.5,0.9,2.8,1.6,4.1,2.5c2,1.4,3.7,1.3,5.7-0.3c4.3-3.8,8.9-7.5,13.3-11.1l1.4-1.1c1-0.8,1.9-1.5,2.9-1.9
			c14.9-5.7,28.6-8.2,41.8-7.8l36.7,1.1v-3.9L1259,88.3L1259,88.3z M1005.7,150.1c-0.8,2-1.7,4.1-2.5,6.1c-0.1,0.3-1,0.9-1.3,0.9
			l0,0c-18.8-1.2-33.1-5.6-45-13.7c-5.5-3.7-8-7.6-8.1-12.4c-0.1-4.5,1.9-8.9,5.6-12c3-2.5,6.6-3.9,10.3-3.9c1,0,1.9,0.1,2.8,0.3
			c2.8,0.5,5.5,1.6,8.2,2.7c1.2,0.5,2.3,0.9,3.5,1.3c0.6,0.2,1.1,0.5,1.6,0.7c0.3,0.2,0.6,0.3,0.9,0.4l1.2,0.5l0.3-1.2
			c0.4-1.4,0.7-2.8,1-4.2c0.7-2.8,1.3-5.5,2.2-8.1c3-8,9.2-11.9,16.8-10.3c5.1,1.1,8.5,4.4,10.4,10.2c2.3,7.2,2.1,14.7-0.4,22.5
			C1011.2,136.9,1008.4,143.6,1005.7,150.1L1005.7,150.1z M1121.4,123.3l13.7-26c0.4-0.8,0.8-1.6,1.3-2.4c1-1.8,2-3.6,2.8-5.6
			c1-2.6,2.7-4,5.8-5c19.1-6.1,38.2-12.2,57.3-18.4l15.4-5L1121.4,123.3L1121.4,123.3z M1161.1,110.3l-2.7-1.6l10-4.5L1161.1,110.3
			L1161.1,110.3z M1179.8,94.8c-0.8,0.7-1.9,1.2-3,1.6l-0.3,0.1c-3.8,1.7-7.7,3.4-11.5,5.1c-2.8,1.2-5.6,2.4-8.3,3.7l48.1-31
			l-1.7,1.4C1195.3,82.1,1187.6,88.5,1179.8,94.8L1179.8,94.8z"/>
		<g>
			<path class="st0" d="M328,212.2h-11.8v-3.8h8v-38.9c0-0.4,0.6-5.4,5.9-9.5l3.8-8.8l3.5,9.4c2.2,1.8,5.6,5.1,5.6,17.8h9.1v-11.2
				h12.7v6.7h3.6v-9.4c-0.1-0.5-2-17.9,8-21.6c0.9-1.7,3.2-6.4,3.5-10.3l1.8-18.1l2,18.1c0.4,3.5,1.7,9.1,3.3,10.4
				c0.4,0.3,0.8,0.6,1.1,0.8c3.6,2.4,6.4,5.3,6.4,19.9v10.3h4.1v-6.7h12.2v11.2h10.5v-9.8c0-0.3,0.3-4.9,5-7.6l0,0
				c-0.1,0,0.3-0.5,0.5-1.9l1.7-13.9l2,13.8c0.1,0.8,0.4,1.8,0.6,2.2c1.5,0.3,5.6,2,6.1,9.8c0.4,6.5,0,25.9,0,26.8v4.9h10.8v3.8
				h-14.6v-8.8c0-0.2,0.3-20.1,0-26.5c-0.3-5.8-2.9-6.2-3.1-6.3c-0.7-0.1-1.3-0.4-1.8-0.9c-0.1,0.1-0.3,0.2-0.4,0.2
				c-2.9,1.6-3.1,4.3-3.1,4.4v13.5h-18v-11.2h-4.6v6.7h-11.7v-14.1c0-13.6-2.5-15.3-4.7-16.7c-0.5-0.3-1-0.7-1.5-1.1
				c-1.3-1.1-2.3-3.1-3-5.2c-1.1,2.6-2.1,4.5-2.2,4.6l-0.4,0.7l-0.7,0.2c-6.5,1.9-6.5,13.7-6,18.1v13.4H361v-6.7h-5.1v11.2h-16.7
				l0-1.9c0.3-13.2-2.9-15.6-4.2-16.7l-0.9-0.7l-0.6-1.5l-0.5,1.1l-0.4,0.3c-4.2,3.1-4.7,6.8-4.7,6.9L328,212.2L328,212.2z
				 M430.8,161.4L430.8,161.4L430.8,161.4z"/>
			<path class="st0" d="M681.8,206.7h-14l0-1.9c0-1.7,2-171-25.1-191.1c-2.3-1.7-4.6-2.1-7.2-1.3c-35.7,11.3-25.3,190.4-25.2,192.3
				l0.1,2h-29.6v-3.8h25.6c-1.2-21.1-8.8-182.4,28-194.1c3.8-1.2,7.4-0.6,10.6,1.9c27.3,20.3,26.8,172.3,26.7,192.2h10.2
				L681.8,206.7L681.8,206.7z"/>
			<path class="st0" d="M318.5,212.2h-15.3V23.7H293V10.7h-29.2v13.1h-8.9v188.5h-19.9V24h-10.3V10.9h-29.2V24h-8.9v188.2H116
				l0.9-2.6c28.2-77.9-9.1-139.3-9.4-139.9l-0.6-1l15.3-24.2H95.6l-0.6-1C69.7-1.1,13.9,3.3,3.8,4.5v204.4H0V1.2L1.6,1
				C2.3,0.9,68.3-9.5,97.8,40.8H129l-17.7,28c4.8,8.4,35.3,66.7,10.1,139.6h61.4V20.2h8.9V7.1h36.8v13h10.3v188.2h12.3V19.9h8.9V6.9
				h36.8v13.1h10.3v188.5h11.5L318.5,212.2L318.5,212.2z"/>
			<g>
				<path class="st0" d="M682.6,206.5l-1.6-3.4c3.4-1.6,7.2-5.8,12.1-11.2c3.7-4.1,7.9-8.7,12.9-13.3c19.3-17.6,32.4-22.3,36.8-23.5
					v-26.1h-6.5l0.1-43.7c0.1-0.3,2.1-6.9,7.5-7.4c1.9-3.6,3.1-26,3.2-46.2l3.8-0.1c0.6,19.7,1.9,41.4,3.1,46.2
					c1.6,0,3.9,0.3,5.7,1.8c1.6,1.4,2.4,3.5,2.4,6.1v44.2h-7.6v25.1H788c0.2-6,1.4-24.9,6.4-37.6l2.4-6.1l1.8,9.8
					c0.8-4.7,1.8-9.7,3.3-13c3.3-7.2,5.7-20,5.7-20.2l3.8,0.4c0,0.1-0.3,12.9,3.2,18.5c3.1,5.1,4.2,13.1,4.6,16.6h2.6l1-23.2
					c0-3.4,1.7-10,7.9-11.8V77.9c-0.2-1-0.7-4.5,1.2-7.1c0.8-1.1,2.4-2.4,5.4-2.6h1.6c3.1,0.2,4.7,1.5,5.5,2.6
					c1.9,2.6,1.4,6.1,1.2,7.1v10.6c6.2,1.8,7.9,8.4,7.9,11.8l1,23.2h2.6c0.4-3.6,1.5-11.6,4.6-16.6c2.9-4.7,3.2-15,3.2-18.5l3.8-0.4
					c0,0.1,2.4,12.9,5.7,20.2c1.5,3.4,2.6,8.2,3.3,12.6l2.1-8.9l2.2,5.7c5.9,14.9,5.8,38.5,5.8,39.5l-0.1,0.5l0,0
					c0,0-0.2,0.9,0.6,2.2c1,1.5,3.9,4.3,12.9,6.1c7.2,1.5,12.5,1.7,18.2,1.9c7.6,0.4,15.4,0.7,28.7,4l-0.9,3.7
					c-12.9-3.2-20.5-3.6-27.9-3.9c-5.8-0.3-11.2-0.5-18.7-2c-8.1-1.6-13.3-4.3-15.5-8c-1.3-2.1-1.1-4-1-4.7c0-1.9-0.1-18.3-3.4-31.5
					l-4.6,19.8l-0.8-13.1c0-0.1-0.9-15.2-4.2-22.3c-1.2-2.6-2.3-5.9-3.2-9c-0.5,3-1.4,6-2.8,8.2c-3.5,5.7-4.2,16.5-4.2,16.6
					l-0.1,1.8h-9.8l-1.1-26.9c0-0.4-0.1-7.7-6.2-8.5l-1.7-0.2l0-14.5c0.2-0.7,0.4-2.9-0.5-4.2c-0.5-0.7-1.3-1-2.5-1.1h-1.4
					c-1.1,0.1-1.9,0.4-2.4,1.1c-0.9,1.2-0.7,3.5-0.5,4.1l0,0.4v14l-1.7,0.2c-6.2,0.8-6.2,8.1-6.2,8.4l-1.1,27h-9.8l-0.1-1.8
					c0-0.1-0.7-10.9-4.2-16.6c-1.3-2.2-2.2-5.2-2.8-8.2c-0.9,3.2-2,6.4-3.2,9c-3.2,7.2-4.5,24.1-4.5,24.2l-1,14.8l-4.3-22.8
					c-3.5,13.9-3.9,30.9-3.9,31.1l0,1.9h-41.1v-32.7h7.6V85.9c0-1.5-0.4-2.6-1.1-3.3c-1.2-1.1-3.3-0.9-4-0.8l-0.8,0.1l-0.8-0.6
					c-0.4-0.4-1.4-1.2-2.3-10.6c-1.5,11.1-3.5,11.1-4.7,11.1c-2.7,0-4.1,3.5-4.5,4.4v39h6.5v33.1l-1.6,0.2
					c-0.1,0-13.9,2.4-36.5,22.9c-4.9,4.5-9,9-12.7,13C690.7,200.1,686.7,204.6,682.6,206.5L682.6,206.5z"/>
				<g>
					<rect x="836.1" y="54.7" class="st0" width="3.8" height="15.5"/>
					<rect x="830.8" y="58.6" class="st0" width="14.4" height="3.8"/>
				</g>
			</g>
			<g>
				<path class="st0" d="M461.8,206.7h-17.2v-3.8h13.6l1.3-39.2c-0.2-1.4-0.4-6.4,7.2-10.5l17-134.2l8.2,48.5l10-61.9l12,79.8
					l3.5-9.2l5.1,10.2l10-79.9l12.9,61.5l6.7-49.5l19.4,131.5c1.8,0.9,5.2,3.1,6.5,8.2c1.6,6.1,4.4,46.5,4.5,48.2l-3.8,0.3
					c-1-14.4-3.2-42.9-4.4-47.5c-1.3-4.8-5-5.9-5.1-6l-1.1-0.4l-0.2-1.2L552.3,45.4l-6.1,44.8l-12.8-60.8l-8.8,69.8l-6.8-13.7
					l-5.6,14.6l-10.5-69.9l-9.7,60.4l-7.8-45.9l-14.1,110.8l-0.9,0.4c-6.8,3.3-6.1,6.9-6.1,7l0,0.5L461.8,206.7L461.8,206.7z"/>
				<circle class="st0" cx="501.7" cy="8.7" r="3.9"/>
				<circle class="st0" cx="484.4" cy="21.5" r="3.9"/>
				<circle class="st0" cx="552" cy="21.5" r="3.9"/>
				<circle class="st0" cx="532.8" cy="8.7" r="3.9"/>
			</g>
		</g>
	</g>
</g>
</svg>
