<?xml version="1.0" encoding="UTF-8"?>
<svg id="Capa_2" data-name="Capa 2" xmlns="http://www.w3.org/2000/svg" viewBox="0 0 556.15 210.62">
  <defs>
    <style>
      .cls-1 {
        fill: #213242;
        stroke-width: 0px;
      }
    </style>
  </defs>
  <g id="Capa_1-2" data-name="Capa 1">
    <path class="cls-1" d="M554.51,60.06c-3.42-.07-6.85-.12-10.27-.16-7.35-.1-14.95-.2-22.4-.57l-2.72-.14c-19.76-.98-40.19-2.01-60.14,2.89-4.92,1.21-9.8,2.55-15.06,4l-.22.06,70.89-58.77-1.59-3.33-2.27-.32c-1.09-.17-2.17-.34-3.26-.37l-42.75-1.03c-31.29-.75-62.57-1.5-93.85-2.32-5.05-.13-6.13,2.32-6.41,6.03-.64,8.08-1.55,16.3-2.44,24.24l-.4,3.61q-.94,8.5-9.33,9.57c-.28.03-.54.08-.81.12l-.59.09c-21.94,2.79-41.7,12.16-58.73,27.87-13.08,12.06-25.64,25.1-37.79,37.71-3.56,3.7-7.13,7.41-10.72,11.09-15.01,15.42-30.06,30.04-49.25,39.57-13.22,6.56-26.48,9.79-40.47,9.83l1.25-2.55c8.38-16.78,13.26-30.13,15.82-43.29,2.31-11.84,3.82-25.8-2.48-39.56-5.88-12.85-18.12-18.91-31.89-15.88-14.16,3.12-19.67,14.7-22.59,23.14-1.07,3.08-1.78,6.2-2.45,9.21-.15.67-.3,1.32-.45,1.97-1.57-.51-3.12-1.04-4.66-1.58-4.54-1.57-9.23-3.18-14-4.11-9.81-1.91-19.74.84-27.29,7.54-7.29,6.46-11.08,15.55-10.41,24.94.83,11.6,8.67,18.65,16.25,24.01,10.53,7.46,22.85,12.82,37.66,16.37,8.29,1.98,16.49,3.45,25.19,5,2.99.53,5.99,1.07,9.02,1.63-.29.5-.59,1.02-.88,1.53-1.59,2.74-3.22,5.58-5,8.33-9.14,14.08-22.21,19.83-38.9,17.08-6.48-1.07-13.02-2.72-19.34-4.32-2.6-.66-5.2-1.32-7.81-1.94-3.8-.91-7.59-1.86-11.37-2.82l.04-.16c-21.06-5.28-33.53-5.85-45.58-6.39-3.97-.18-7.88-.38-11.97-.73-.61,1.99-1.31,3.95-2.09,5.9,4.78.45,9.22.65,13.78.85,11.75.54,23.91,1.09,44.39,6.22l.05-.18c2.07.55,4.15,1.1,6.22,1.66,10.75,2.93,21.87,5.97,32.99,8.08,3.22.62,6.34.92,9.37.92,14.31,0,26.31-6.83,35.07-20.09,2.18-3.3,4.7-7.24,6.81-11.38,1.17-2.3,2.38-3.03,5.01-3.04,15.57-.03,30.77-3.85,45.19-11.35,14.21-7.4,27.35-17.65,42.62-33.28,5.84-5.97,11.59-12.04,17.34-18.1,9.43-9.94,19.17-20.23,29.16-29.9,23.31-22.57,47.44-33.81,73.74-34.36,2.1-.04,4.59-2.62,4.97-4.59.56-2.79.79-5.65,1.01-8.41.1-1.27.2-2.54.34-3.81.64-6.04,1.3-12.09,1.97-18.22l.85-7.78,121.19,2.99-22.36,7.21c-34.21,11.03-68.41,22.06-102.58,33.19-2.6.85-5.23,2.97-6.39,5.15-10.63,19.85-21.26,40.12-31.53,59.73l-3.36,6.4c-.52.99-.83,2.01-1.14,3.01-.12.41-.26.83-.39,1.23l-.37,1.05,2.96,2.67,55.86-36.04,1.64.98c1.29.77,2.5,1.47,3.66,2.13,2.44,1.4,4.54,2.61,6.5,4,3.24,2.29,5.93,2.14,9.01-.54,6.92-5.99,14.12-11.9,21.1-17.6l2.22-1.82c1.53-1.25,3.03-2.42,4.57-3.01,23.72-9.02,45.47-13.11,66.42-12.49l58.29,1.72v-6.17l-1.64-.04ZM151.51,158.44c-1.35,3.23-2.71,6.45-4.03,9.69-.21.5-1.54,1.41-2.06,1.41h0c-29.88-1.99-52.61-8.9-71.51-21.74-8.74-5.93-12.73-12.04-12.92-19.81-.18-7.15,3.07-14.1,8.91-19.05,4.76-4.03,10.57-6.18,16.44-6.18,1.51,0,3.03.14,4.54.44,4.42.85,8.82,2.58,13.09,4.26,1.85.73,3.7,1.45,5.56,2.12.88.31,1.72.74,2.6,1.18.47.24.96.48,1.46.71l1.83.86.51-1.96c.6-2.3,1.11-4.53,1.62-6.69,1.05-4.52,2.05-8.79,3.54-12.81,4.72-12.75,14.72-18.86,26.78-16.33,8.17,1.72,13.57,7.04,16.49,16.27,3.6,11.38,3.4,23.44-.58,35.84-3.45,10.77-7.93,21.45-12.26,31.78ZM335.64,115.81l21.73-41.3c.66-1.26,1.36-2.51,2.06-3.76,1.58-2.83,3.21-5.75,4.45-8.83,1.64-4.08,4.24-6.3,9.28-7.89,30.41-9.63,60.78-19.42,91.15-29.2l24.47-7.88-153.14,98.85ZM398.79,95.14l-4.24-2.49,15.86-7.14-11.62,9.64ZM428.51,70.48c-1.32,1.08-3.09,1.86-4.79,2.61l-.51.23c-6.11,2.7-12.24,5.38-18.35,8.05-4.42,1.94-8.84,3.87-13.26,5.81l76.5-49.36-2.71,2.24c-12.28,10.15-24.56,20.31-36.88,30.42Z"/>
  </g>
</svg>