<?xml version="1.0" encoding="utf-8"?>
<!-- Generator: Adobe Illustrator 28.3.0, SVG Export Plug-In . SVG Version: 6.00 Build 0)  -->
<svg version="1.1" id="Capa_1" xmlns="http://www.w3.org/2000/svg" xmlns:xlink="http://www.w3.org/1999/xlink" x="0px" y="0px"
	 viewBox="0 0 44 44" style="enable-background:new 0 0 44 44;" xml:space="preserve">
<style type="text/css">
	.st0{fill:#EABF8B;}
</style>
<g id="champagne">
</g>
<g id="diamond_x5F_ring">
</g>
<g id="balloons">
	<g>
		<path class="st0" d="M16.6,4.9C16.7,5,16.9,5,17.1,5c0.3,0,0.7-0.2,0.9-0.5C18.9,2.9,20.4,2,22,2s3.1,0.9,4.1,2.5
			C26.4,5,27,5.1,27.4,4.9C27.9,4.6,28,4,27.7,3.5C26.5,1.3,24.3,0,22,0s-4.5,1.3-5.8,3.5C15.9,4,16.1,4.6,16.6,4.9z"/>
		<path class="st0" d="M39,13c0-4.4-3.1-8-7-8c-2.4,0-4.6,1.4-5.9,3.6C25.9,9.1,26,9.7,26.5,10s1.1,0.1,1.4-0.4C28.8,8,30.3,7,32,7
			c2.8,0,5,2.7,5,6s-2.2,6-5,6c-0.3,0-0.5,0.1-0.7,0.3c-0.1,0.1-0.1,0.1-0.2,0.2l-1,2c-0.2,0.3-0.1,0.7,0,1c0.2,0.3,0.5,0.5,0.9,0.5
			v1c0,2.2-1.1,4.2-2.9,5.5l-2.7,1.9c-0.5,0.3-0.6,0.9-0.2,1.4c0.2,0.3,0.5,0.4,0.8,0.4c0.2,0,0.4-0.1,0.6-0.2l2.7-1.9
			c2.3-1.6,3.7-4.3,3.7-7.1v-1c0.3,0,0.7-0.2,0.9-0.5s0.2-0.7,0-1l-0.4-0.7C36.7,20,39,16.8,39,13z"/>
		<path class="st0" d="M18,33.2c0.3,0,0.6-0.1,0.8-0.4c0.3-0.5,0.2-1.1-0.2-1.4l-2.7-1.9C14.1,28.2,13,26.2,13,24v-1
			c0.3,0,0.7-0.2,0.9-0.5s0.2-0.7,0-1l-1-2c0-0.1-0.1-0.2-0.2-0.2C12.5,19.1,12.3,19,12,19c-2.8,0-5-2.7-5-6s2.2-6,5-6
			c1.7,0,3.2,1,4.1,2.6c0.3,0.5,0.9,0.6,1.4,0.4c0.5-0.3,0.6-0.9,0.4-1.4C16.6,6.4,14.4,5,12,5c-3.9,0-7,3.6-7,8
			c0,3.8,2.3,7,5.5,7.8l-0.4,0.7c-0.2,0.3-0.1,0.7,0,1c0.2,0.3,0.5,0.5,0.9,0.5v1c0,2.8,1.4,5.5,3.7,7.1l2.7,1.9
			C17.6,33.1,17.8,33.2,18,33.2z"/>
		<path class="st0" d="M26.5,35c-0.5,0-1.1,0.2-1.5,0.5L23,37v-8c0.3,0,0.7-0.2,0.9-0.5c0.2-0.3,0.2-0.7,0-1l-1-2
			c0-0.1-0.1-0.2-0.2-0.2C22.5,25.1,22.3,25,22,25c-2.8,0-5-2.7-5-6s2.2-6,5-6s5,2.7,5,6c0,1.7-0.6,3.4-1.7,4.5
			c-0.4,0.4-0.4,1,0,1.4s1,0.4,1.4,0c1.4-1.5,2.3-3.7,2.3-5.9c0-4.4-3.1-8-7-8s-7,3.6-7,8c0,3.8,2.3,7,5.5,7.8l-0.4,0.7
			c-0.2,0.3-0.1,0.7,0,1c0.2,0.3,0.5,0.5,0.9,0.5v8l-2-1.5c-0.4-0.3-1-0.5-1.5-0.5c-1.4,0-2.5,1.1-2.5,2.5v3c0,1.4,1.1,2.5,2.5,2.5
			c0.5,0,1.1-0.2,1.5-0.5l2-1.5v2c0,0.6,0.4,1,1,1s1-0.4,1-1v-3.5l3.2-2.4c0.3-0.2,0.8,0,0.8,0.4v3c0,0.4-0.5,0.6-0.8,0.4
			c-0.4-0.3-1.1-0.2-1.4,0.2s-0.2,1.1,0.2,1.4c0.4,0.3,1,0.5,1.5,0.5c1.4,0,2.5-1.1,2.5-2.5v-3C29,36.1,27.9,35,26.5,35z M17.8,40.9
			c-0.3,0.2-0.8,0-0.8-0.4v-3c0-0.3,0.2-0.5,0.5-0.5c0.1,0,0.2,0,0.3,0.1l2.5,1.9L17.8,40.9z"/>
		<path class="st0" d="M19.2,15.4C18.4,16.3,18,17.6,18,19c0,0.6,0.4,1,1,1s1-0.4,1-1c0-0.9,0.3-1.8,0.8-2.3
			c0.4-0.4,0.3-1.1-0.1-1.4C20.2,14.9,19.6,15,19.2,15.4z"/>
		<path class="st0" d="M9.2,9.4C8.4,10.3,8,11.6,8,13c0,0.6,0.4,1,1,1s1-0.4,1-1c0-0.9,0.3-1.8,0.8-2.3c0.4-0.4,0.3-1.1-0.1-1.4
			C10.2,8.9,9.6,9,9.2,9.4z"/>
	</g>
</g>
<g id="lesbian">
</g>
<g id="couple">
</g>
<g id="gay">
</g>
<g id="gender">
</g>
<g id="love">
</g>
<g id="letter">
</g>
<g id="ring_x5F_box">
</g>
<g id="cake">
</g>
<g id="key">
</g>
<g id="birds">
</g>
<g id="calendar">
</g>
<g id="lock">
</g>
<g id="dress">
</g>
<g id="broken_x5F_heart">
</g>
<g id="flower">
</g>
<g id="gift">
</g>
<g id="suit">
</g>
</svg>
