<?xml version="1.0" encoding="utf-8"?>
<!-- Generator: Adobe Illustrator 28.3.0, SVG Export Plug-In . SVG Version: 6.00 Build 0)  -->
<svg version="1.1" id="Capa_1" xmlns="http://www.w3.org/2000/svg" xmlns:xlink="http://www.w3.org/1999/xlink" x="0px" y="0px"
	 viewBox="0 0 44 44" style="enable-background:new 0 0 44 44;" xml:space="preserve">
<style type="text/css">
	.st0{fill:#EABF8B;}
</style>
<g id="champagne">
</g>
<g id="diamond_x5F_ring">
</g>
<g id="balloons">
</g>
<g id="lesbian">
</g>
<g id="couple">
</g>
<g id="gay">
</g>
<g id="gender">
</g>
<g id="love">
</g>
<g id="letter">
</g>
<g id="ring_x5F_box">
</g>
<g id="cake">
</g>
<g id="key">
</g>
<g id="birds">
	<g>
		<circle class="st0" cx="14" cy="23" r="1"/>
		<circle class="st0" cx="30" cy="23" r="1"/>
		<path class="st0" d="M43,27h-1h-1c-2.2,0-4-1.8-4-3.9c-0.1-2.7-1.6-5-4-5.7c-3.1-1-6.3,0.4-7.6,3.3c-0.1,0.3-0.5,0.8-0.8,0.9
			L22,22.9l-2.7-1.3c-0.3-0.1-0.7-0.6-0.8-0.9c-1.2-2.9-4.5-4.4-7.6-3.3c-2.3,0.8-3.9,3.1-4,5.7C7,25.2,5.2,27,3,27H2H1
			c-0.6,0-1,0.4-1,1s0.4,1,1,1h0.1c0.3,2.9,2,5.5,4.6,6.9c0.4,0.2,1,0.1,1.3-0.4s0.1-1.1-0.4-1.4c-1.9-1.1-3.2-3-3.5-5.1H10
			c0.6,0,1-0.4,1-1s-0.4-1-1-1H7.4c1-1,1.6-2.4,1.6-3.9c0-1.8,1.1-3.4,2.6-3.9c2.4-0.8,4.4,0.5,5.1,2.2c0.3,0.7,1,1.5,1.8,1.9
			l1.3,0.6L17.6,25c-0.4,0.3-0.6,0.6-0.6,1v1.7c0,3.8-2.9,7-6.5,7.3c-0.2,0-0.3,0-0.5,0c-0.6,0-1,0.4-1,1v3c-0.6,0-1,0.4-1,1
			s0.4,1,1,1h3c0.6,0,1-0.4,1-1s-0.4-1-1-1h-1v-2.1c4.5-0.5,8-4.5,8-9.2v-1.1l3-1.5l3,1.5v1.1c0,4.7,3.5,8.7,8,9.2V39h-1
			c-0.6,0-1,0.4-1,1s0.4,1,1,1h3c0.6,0,1-0.4,1-1s-0.4-1-1-1v-3c0-0.6-0.4-1-1-1c-0.2,0-0.3,0-0.5,0c-3.7-0.2-6.5-3.4-6.5-7.3V26
			c0-0.4-0.2-0.7-0.6-0.9L24.3,24l1.3-0.6c0.8-0.4,1.5-1.3,1.8-1.9c0.7-1.7,2.7-3,5.1-2.2c1.5,0.5,2.6,2,2.6,3.9
			c0,1.5,0.6,2.8,1.6,3.9H34c-0.6,0-1,0.4-1,1s0.4,1,1,1h6.9c-0.3,2.1-1.6,4.1-3.5,5.1c-0.5,0.3-0.7,0.9-0.4,1.4s0.9,0.7,1.4,0.4
			c2.6-1.4,4.2-4,4.6-6.9l0,0c0.6,0,1-0.4,1-1S43.6,27,43,27z"/>
		<path class="st0" d="M20.7,18.4C21,18.8,21.5,19,22,19s1-0.2,1.3-0.6l6.2-6.6c1-1,1.5-2.4,1.5-3.8l0,0c0,0,0,0,0-0.1l0,0
			c0-0.2,0-0.4-0.1-0.6C30.6,4.9,28.5,3,26,3c-2.8,0-5,2.2-5,5c0,0.6,0.4,1,1,1s1-0.4,1-1c0-1.7,1.3-3,3-3c0.6,0,1.2,0.2,1.7,0.5
			c0,0.1,0.1,0.1,0.1,0.2C28.5,6.3,29,7.1,29,8s-0.3,1.8-0.9,2.4L22,16.9l-6.1-6.5C15.3,9.8,15,8.9,15,8s0.5-1.7,1.2-2.3
			s1.7-0.8,2.6-0.6c0.5,0.1,1.1-0.2,1.2-0.8c0.1-0.5-0.2-1.1-0.8-1.2c-1.5-0.3-3.1,0.1-4.3,1C13.8,5,13.1,6.4,13,7.8
			c-0.1,1.5,0.5,2.9,1.5,3.9L20.7,18.4z"/>
	</g>
</g>
<g id="calendar">
</g>
<g id="lock">
</g>
<g id="dress">
</g>
<g id="broken_x5F_heart">
</g>
<g id="flower">
</g>
<g id="gift">
</g>
<g id="suit">
</g>
</svg>
