<?xml version="1.0" encoding="utf-8"?>
<!-- Generator: Adobe Illustrator 28.3.0, SVG Export Plug-In . SVG Version: 6.00 Build 0)  -->
<svg version="1.1" id="Capa_1" xmlns="http://www.w3.org/2000/svg" xmlns:xlink="http://www.w3.org/1999/xlink" x="0px" y="0px"
	 viewBox="0 0 44 44" style="enable-background:new 0 0 44 44;" xml:space="preserve">
<style type="text/css">
	.st0{fill:#EABF8B;}
</style>
<g id="champagne">
</g>
<g id="diamond_x5F_ring">
</g>
<g id="balloons">
</g>
<g id="lesbian">
</g>
<g id="couple">
</g>
<g id="gay">
</g>
<g id="gender">
</g>
<g id="love">
</g>
<g id="letter">
</g>
<g id="ring_x5F_box">
</g>
<g id="cake">
	<path class="st0" d="M42,42h-3v-9c0-1.7-1.3-3-3-3H12v-9c0-0.6,0.4-1,1-1h18c0.6,0,1,0.4,1,1v1.2c-2.2-0.5-4.8-0.1-6.5,0.9
		c-1.9,1.1-5.1,1.1-7,0c-0.9-0.6-2.1-0.9-3.4-1.1c-0.6-0.1-1,0.3-1.1,0.9c-0.1,0.5,0.3,1,0.9,1.1c1,0.1,1.9,0.4,2.6,0.8
		c1.3,0.8,2.9,1.1,4.5,1.1s3.2-0.4,4.5-1.1c1.4-0.9,3.6-1.1,5.5-0.6V27c0,0.6,0.4,1,1,1s1-0.4,1-1v-6c0-1.7-1.3-3-3-3h-1v-7
		c0-1.7-1.3-3-3-3h-4V6.5l2.2-2.3C25.8,3.8,26,3.1,26,2.4S25.6,1,25,0.5c-0.9-0.7-2.1-0.7-3-0.1l0,0l0,0c-0.9-0.6-2.2-0.5-3,0.1
		c-0.6,0.5-1,1.2-1,1.9s0.2,1.4,0.7,1.9L21,6.5V8h-4c-1.7,0-3,1.3-3,3v4c0,0.6,0.4,1,1,1s1-0.4,1-1v-1.7c0.5,0.1,1.1,0.3,1.5,0.6
		c1.2,0.8,2.9,1.1,4.5,1.1c1.2,0,2.3-0.2,3.3-0.6c0.5-0.2,0.8-0.8,0.6-1.3c-0.2-0.5-0.8-0.8-1.3-0.6c-1.9,0.7-4.5,0.6-6.1-0.4
		c-0.7-0.4-1.6-0.8-2.5-0.9V11c0-0.6,0.4-1,1-1h10c0.6,0,1,0.4,1,1v7H13c-1.7,0-3,1.3-3,3v9H8c-1.7,0-3,1.3-3,3v3
		c0,0.4,0.2,0.7,0.5,0.9s0.7,0.2,1,0c1.9-1.1,5.1-1.1,7,0c2.5,1.5,6.5,1.5,9,0c1.9-1.1,5.1-1.1,7,0c1.2,0.7,2.8,1.1,4.5,1.1
		c0.6,0,1-0.4,1-1s-0.4-1-1-1c-1.3,0-2.6-0.3-3.5-0.9c-2.5-1.5-6.5-1.5-9,0c-1.9,1.1-5.1,1.1-7,0c-2.1-1.2-5.1-1.5-7.5-0.7V33
		c0-0.6,0.4-1,1-1h28c0.6,0,1,0.4,1,1v9H7v-2c0-0.6-0.4-1-1-1s-1,0.4-1,1v2H2c-0.6,0-1,0.4-1,1s0.4,1,1,1h4h32h4c0.6,0,1-0.4,1-1
		S42.6,42,42,42z M20,2.5c0-0.1,0-0.2,0.2-0.3C20.3,2,20.4,2,20.5,2s0.2,0,0.3,0.1C21,2.2,21,2.2,21.1,2.3C21.2,2.7,21.6,3,22,3
		s0.8-0.3,0.9-0.7c0-0.1,0.1-0.2,0.2-0.2c0.2-0.1,0.5-0.1,0.7,0C24,2.2,24,2.4,24,2.5s0,0.2-0.2,0.4L22,4.7l-1.9-1.9
		C20,2.7,20,2.5,20,2.5z"/>
</g>
<g id="key">
</g>
<g id="birds">
</g>
<g id="calendar">
</g>
<g id="lock">
</g>
<g id="dress">
</g>
<g id="broken_x5F_heart">
</g>
<g id="flower">
</g>
<g id="gift">
</g>
<g id="suit">
</g>
</svg>
