<?xml version="1.0" encoding="utf-8"?>
<!-- Generator: Adobe Illustrator 28.3.0, SVG Export Plug-In . SVG Version: 6.00 Build 0)  -->
<svg version="1.1" id="Capa_1" xmlns="http://www.w3.org/2000/svg" xmlns:xlink="http://www.w3.org/1999/xlink" x="0px" y="0px"
	 viewBox="0 0 44 44" style="enable-background:new 0 0 44 44;" xml:space="preserve">
<style type="text/css">
	.st0{fill:#EABF8B;}
</style>
<g id="champagne">
</g>
<g id="diamond_x5F_ring">
</g>
<g id="balloons">
</g>
<g id="lesbian">
</g>
<g id="couple">
</g>
<g id="gay">
</g>
<g id="gender">
</g>
<g id="love">
</g>
<g id="letter">
</g>
<g id="ring_x5F_box">
</g>
<g id="cake">
</g>
<g id="key">
</g>
<g id="birds">
</g>
<g id="calendar">
	<g>
		<path class="st0" d="M1,12c0.6,0,1-0.4,1-1V8c0-0.6,0.4-1,1-1h7v1c0,1.7,1.3,3,3,3c1.1,0,2.1-0.6,2.6-1.5c0.3-0.5,0.1-1.1-0.4-1.4
			c-0.5-0.3-1.1-0.1-1.4,0.4C13.7,8.8,13.4,9,13,9c-0.6,0-1-0.4-1-1V4c0-0.6,0.4-1,1-1s1,0.4,1,1v2l0,0c0,0.6,0.4,1,1,1h10
			c0.6,0,1-0.4,1-1s-0.4-1-1-1h-9V4c0-1.7-1.3-3-3-3s-3,1.3-3,3v1H3C1.3,5,0,6.3,0,8v3C0,11.6,0.4,12,1,12z"/>
		<path class="st0" d="M41,5h-7V4c0-1.7-1.3-3-3-3s-3,1.3-3,3v4c0,1.7,1.3,3,3,3c0.5,0,1-0.1,1.5-0.4c0.5-0.3,0.8-0.6,1.1-1.1
			s0.1-1.1-0.4-1.4c-0.5-0.3-1.1-0.1-1.4,0.4c-0.1,0.2-0.2,0.3-0.4,0.4C31.3,9,31.2,9,31,9c-0.6,0-1-0.4-1-1V4c0-0.6,0.4-1,1-1
			s1,0.4,1,1v2c0,0.6,0.4,1,1,1h8c0.6,0,1,0.4,1,1v7v17c0,1.1-0.9,2-2,2h-2c-1.7,0-3,1.3-3,3v2c0,1.1-0.9,2-2,2H3c-0.6,0-1-0.4-1-1
			V16h37c0.6,0,1-0.4,1-1s-0.4-1-1-1H1c-0.6,0-1,0.4-1,1v25c0,1.7,1.3,3,3,3h31.3c1.3,0,2.6-0.5,3.5-1.5l4.7-4.7
			c0.9-0.9,1.5-2.2,1.5-3.5V15V8C44,6.3,42.7,5,41,5z M37,39.6V37c0-0.6,0.4-1,1-1h2.6L37,39.6z"/>
		<path class="st0" d="M18.8,23.1c0.5,0.1,1.1-0.2,1.2-0.8c0.1-0.5-0.2-1.1-0.8-1.2c-1.5-0.3-3.1,0.1-4.3,1
			c-1.1,0.9-1.8,2.3-1.9,3.7c-0.1,1.5,0.5,2.9,1.5,3.9l6.2,6.6C21,36.8,21.5,37,22,37s1-0.2,1.3-0.6l6.2-6.6c1-1,1.5-2.4,1.5-3.8
			l0,0c0,0,0,0,0-0.1l0,0c0-0.2,0-0.4-0.1-0.6C30.6,22.9,28.5,21,26,21c-2.8,0-5,2.2-5,5c0,0.6,0.4,1,1,1s1-0.4,1-1c0-1.7,1.3-3,3-3
			c0.6,0,1.2,0.2,1.7,0.5c0,0.1,0.1,0.1,0.1,0.2c0.7,0.6,1.1,1.4,1.2,2.3c0,0.9-0.3,1.8-0.9,2.4L22,34.9l-6.1-6.5
			c-0.6-0.6-1-1.5-0.9-2.4c0-0.9,0.5-1.7,1.2-2.3C16.9,23.1,17.9,22.9,18.8,23.1z"/>
	</g>
</g>
<g id="lock">
</g>
<g id="dress">
</g>
<g id="broken_x5F_heart">
</g>
<g id="flower">
</g>
<g id="gift">
</g>
<g id="suit">
</g>
</svg>
