<?xml version="1.0" encoding="utf-8"?>
<!-- Generator: Adobe Illustrator 28.3.0, SVG Export Plug-In . SVG Version: 6.00 Build 0)  -->
<svg version="1.1" id="Capa_1" xmlns="http://www.w3.org/2000/svg" xmlns:xlink="http://www.w3.org/1999/xlink" x="0px" y="0px"
	 viewBox="0 0 44 44" style="enable-background:new 0 0 44 44;" xml:space="preserve">
<style type="text/css">
	.st0{fill:#EABF8B;}
</style>
<g id="champagne">
	<g>
		<path class="st0" d="M34,14c0.6,0,1-0.4,1-1V9c0-0.6-0.4-1-1-1H24c-0.6,0-1,0.4-1,1v17c0,3,2.2,5.4,5,5.9V40c0,1.1-0.9,2-2,2
			c-0.6,0-1,0.4-1,1s0.4,1,1,1c0.2,0,6,0,6,0c0.6,0,1-0.4,1-1s-0.4-1-1-1c-1.1,0-2-0.9-2-2v-8.1c2.8-0.5,5-2.9,5-5.9v-9
			c0-0.6-0.4-1-1-1h-6c-0.6,0-1,0.4-1,1s0.4,1,1,1h5v8c0,2.2-1.8,4-4,4s-4-1.8-4-4V10h8v3C33,13.6,33.4,14,34,14z"/>
		<path class="st0" d="M20,8H10C9.4,8,9,8.4,9,9v17c0,3,2.2,5.4,5,5.9V40c0,1.1-0.9,2-2,2c-0.6,0-1,0.4-1,1s0.4,1,1,1h6
			c0.6,0,1-0.4,1-1s-0.4-1-1-1c-1.1,0-2-0.9-2-2v-8.1c2.8-0.5,5-2.9,5-5.9v-9c0-0.6-0.4-1-1-1h-6c-0.6,0-1,0.4-1,1s0.4,1,1,1h5v8
			c0,2.2-1.8,4-4,4s-4-1.8-4-4V10h8v3c0,0.6,0.4,1,1,1s1-0.4,1-1V9C21,8.4,20.6,8,20,8z"/>
		<path class="st0" d="M23,1c0-0.6-0.4-1-1-1s-1,0.4-1,1v3c0,0.6,0.4,1,1,1s1-0.4,1-1V1z"/>
		<path class="st0" d="M25,7c0.2,0,0.4-0.1,0.6-0.2l3-2c0.5-0.3,0.6-0.9,0.3-1.4c-0.3-0.5-0.9-0.6-1.4-0.3l-3,2
			C24,5.4,23.9,6,24.2,6.5C24.4,6.8,24.7,7,25,7z"/>
		<path class="st0" d="M18.4,6.8C18.6,6.9,18.8,7,19,7c0.3,0,0.6-0.2,0.8-0.4c0.3-0.5,0.2-1.1-0.3-1.4l-3-2C16,2.9,15.4,3,15.1,3.5
			c-0.3,0.5-0.2,1.1,0.3,1.4L18.4,6.8z"/>
	</g>
</g>
<g id="diamond_x5F_ring">
</g>
<g id="balloons">
</g>
<g id="lesbian">
</g>
<g id="couple">
</g>
<g id="gay">
</g>
<g id="gender">
</g>
<g id="love">
</g>
<g id="letter">
</g>
<g id="ring_x5F_box">
</g>
<g id="cake">
</g>
<g id="key">
</g>
<g id="birds">
</g>
<g id="calendar">
</g>
<g id="lock">
</g>
<g id="dress">
</g>
<g id="broken_x5F_heart">
</g>
<g id="flower">
</g>
<g id="gift">
</g>
<g id="suit">
</g>
</svg>
