<?xml version="1.0" encoding="utf-8"?>
<!-- Generator: Adobe Illustrator 28.3.0, SVG Export Plug-In . SVG Version: 6.00 Build 0)  -->
<svg version="1.1" id="Capa_1" xmlns="http://www.w3.org/2000/svg" xmlns:xlink="http://www.w3.org/1999/xlink" x="0px" y="0px"
	 viewBox="0 0 44 44" style="enable-background:new 0 0 44 44;" xml:space="preserve">
<style type="text/css">
	.st0{fill:#EABF8B;}
</style>
<g id="champagne">
</g>
<g id="diamond_x5F_ring">
</g>
<g id="balloons">
</g>
<g id="lesbian">
</g>
<g id="couple">
</g>
<g id="gay">
</g>
<g id="gender">
</g>
<g id="love">
</g>
<g id="letter">
</g>
<g id="ring_x5F_box">
	<g>
		<path class="st0" d="M37.6,10.9l2,1C39.7,12,39.8,12,40,12c0.4,0,0.7-0.2,0.9-0.6c0.2-0.5,0-1.1-0.4-1.3l-2-1
			c-0.5-0.2-1.1,0-1.3,0.4S37.1,10.6,37.6,10.9z"/>
		<path class="st0" d="M38,8c0.1,0,0.3,0,0.4-0.1l2-1c0.5-0.2,0.7-0.8,0.4-1.3c-0.2-0.5-0.8-0.7-1.3-0.4l-2,1
			C37,6.4,36.8,7,37.1,7.5C37.3,7.8,37.6,8,38,8z"/>
		<path class="st0" d="M21.6,6.9l2,1C23.7,8,23.8,8,24,8c0.4,0,0.7-0.2,0.9-0.6c0.2-0.5,0-1.1-0.4-1.3l-2-1c-0.5-0.2-1.1,0-1.3,0.4
			C20.9,6,21.1,6.6,21.6,6.9z"/>
		<path class="st0" d="M22,12c0.1,0,0.3,0,0.4-0.1l2-1c0.5-0.2,0.7-0.8,0.4-1.3S24,8.9,23.6,9.1l-2,1c-0.5,0.2-0.7,0.8-0.4,1.3
			C21.3,11.8,21.6,12,22,12z"/>
		<path class="st0" d="M43,29H21c-0.6,0-1,0.4-1,1s0.4,1,1,1h21v7c0,0.6-0.4,1-1,1H19c-0.6,0-1-0.4-1-1v-8c0-0.6-0.4-1-1-1h-3
			C7.4,29,2,23.6,2,17S7.4,5,14,5h2v21c0,0.6,0.4,1,1,1s1-0.4,1-1V4c0-0.6-0.4-1-1-1h-3C6.3,3,0,9.3,0,17c0,7.1,5.3,12.9,12.1,13.9
			c0.4,2,1.9,3.6,3.9,4V38c0,1.7,1.3,3,3,3h22c1.7,0,3-1.3,3-3v-8C44,29.4,43.6,29,43,29z M14.2,31H16v1.8
			C15.2,32.5,14.5,31.8,14.2,31z"/>
		<path class="st0" d="M36.9,26.9C37,27,37.2,27,37.3,27c0.4,0,0.7-0.2,0.9-0.6c0.5-1.1,0.8-2.2,0.8-3.4c0-4.4-3.6-8-8-8s-8,3.6-8,8
			c0,1.2,0.3,2.3,0.8,3.4c0.2,0.5,0.8,0.7,1.3,0.5s0.7-0.8,0.5-1.3C25.2,24.8,25,23.9,25,23c0-3.3,2.7-6,6-6s6,2.7,6,6
			c0,0.9-0.2,1.8-0.6,2.6C36.2,26.1,36.4,26.7,36.9,26.9z"/>
		<path class="st0" d="M21.8,27c0.5-0.2,0.8-0.7,0.7-1.3C22.1,24.8,22,23.9,22,23c0-5,4-9,9-9s9,4,9,9c0,0.9-0.1,1.8-0.4,2.7
			c-0.2,0.5,0.1,1.1,0.7,1.3c0.1,0,0.2,0,0.3,0c0.4,0,0.8-0.3,1-0.7c0.3-1.1,0.5-2.2,0.5-3.3c0-5.1-3.5-9.4-8.3-10.6l2.1-2.8
			c0.1-0.3,0.2-0.6,0-0.9l-1-3C34.8,5.3,34.4,5,34,5h-6c-0.4,0-0.8,0.3-0.9,0.7l-1,3c-0.1,0.3,0,0.7,0.1,0.9l2.1,2.8
			C23.5,13.6,20,17.9,20,23c0,1.1,0.2,2.2,0.5,3.3C20.7,26.8,21.2,27.1,21.8,27z M30.5,12L29,10h2c0.6,0,1-0.4,1-1s-0.4-1-1-1h-2.6
			l0.3-1h4.6l0.6,1.8L31.5,12H30.5z"/>
	</g>
</g>
<g id="cake">
</g>
<g id="key">
</g>
<g id="birds">
</g>
<g id="calendar">
</g>
<g id="lock">
</g>
<g id="dress">
</g>
<g id="broken_x5F_heart">
</g>
<g id="flower">
</g>
<g id="gift">
</g>
<g id="suit">
</g>
</svg>
