<?xml version="1.0" encoding="UTF-8"?>
<svg id="Capa_2" data-name="Capa 2" xmlns="http://www.w3.org/2000/svg" viewBox="0 0 1260.05 212.19">
  <defs>
    <style>
      .cls-1 {
        fill: #213242;
        stroke-width: 0px;
      }
    </style>
  </defs>
  <g id="Capa_1-2" data-name="Capa 1">
    <g>
      <path class="cls-1" d="M1259.02,88.27c-2.15-.05-4.3-.07-6.46-.1-4.62-.06-9.4-.13-14.08-.36l-1.71-.09c-12.43-.62-25.27-1.26-37.81,1.82-3.09.76-6.16,1.6-9.47,2.52l-.14.04,44.57-36.95-1-2.09-1.42-.2c-.68-.11-1.37-.21-2.05-.23l-26.88-.65c-19.67-.47-39.34-.94-59-1.46-3.18-.08-3.85,1.46-4.03,3.79-.4,5.08-.98,10.25-1.53,15.24l-.25,2.27q-.59,5.35-5.86,6.02c-.17.02-.34.05-.51.08l-.37.06c-13.8,1.75-26.22,7.65-36.92,17.52-8.22,7.58-16.12,15.78-23.76,23.71-2.24,2.33-4.48,4.66-6.74,6.97-9.44,9.69-18.9,18.89-30.97,24.88-8.31,4.12-16.65,6.15-25.44,6.18l.79-1.6c5.27-10.55,8.34-18.94,9.95-27.22,1.45-7.44,2.4-16.22-1.56-24.87-3.69-8.08-11.39-11.89-20.05-9.98-8.9,1.96-12.37,9.24-14.2,14.55-.67,1.94-1.12,3.9-1.54,5.79-.09.42-.19.83-.28,1.24-.98-.32-1.96-.66-2.93-.99-2.85-.98-5.8-2-8.8-2.58-6.17-1.2-12.41.53-17.16,4.74-4.58,4.06-6.97,9.78-6.54,15.68.52,7.29,5.45,11.72,10.21,15.1,6.62,4.69,14.36,8.06,23.68,10.29,5.21,1.25,10.37,2.17,15.84,3.14,1.88.33,3.77.67,5.67,1.03-.19.32-.37.64-.56.96-1,1.73-2.03,3.51-3.15,5.23-5.75,8.85-13.97,12.47-24.45,10.74-4.08-.67-8.19-1.71-12.16-2.72-1.63-.41-3.27-.83-4.91-1.22-2.39-.57-4.77-1.17-7.15-1.77l.02-.1c-13.24-3.32-21.08-3.68-28.66-4.02-2.5-.11-4.95-.24-7.53-.46-.39,1.25-.83,2.49-1.31,3.71,3.01.28,5.8.41,8.66.54,7.39.34,15.03.68,27.91,3.91l.03-.12c1.3.35,2.61.69,3.91,1.04,6.76,1.85,13.75,3.75,20.74,5.08,2.03.39,3.99.58,5.89.58,8.99,0,16.54-4.3,22.05-12.63,1.37-2.08,2.95-4.55,4.28-7.16.73-1.45,1.49-1.91,3.15-1.91,9.79-.02,19.35-2.42,28.41-7.14,8.93-4.65,17.2-11.1,26.8-20.92,3.67-3.76,7.29-7.57,10.9-11.38,5.93-6.25,12.05-12.72,18.33-18.8,14.66-14.19,29.83-21.25,46.36-21.6,1.32-.02,2.88-1.65,3.13-2.88.35-1.76.49-3.55.63-5.29.07-.8.13-1.6.21-2.39.4-3.8.82-7.6,1.24-11.46l.53-4.89,76.19,1.88-14.06,4.53c-21.51,6.93-43.01,13.87-64.49,20.87-1.63.54-3.29,1.87-4.02,3.24-6.68,12.48-13.36,25.22-19.82,37.56l-2.11,4.03c-.33.62-.52,1.27-.72,1.89-.08.26-.16.52-.25.77l-.23.66,1.86,1.68,35.12-22.66,1.03.62c.81.48,1.57.92,2.3,1.34,1.53.88,2.85,1.64,4.09,2.52,2.04,1.44,3.73,1.34,5.66-.34,4.35-3.77,8.88-7.48,13.27-11.07l1.4-1.14c.96-.79,1.9-1.52,2.87-1.89,14.91-5.67,28.59-8.24,41.76-7.85l36.65,1.08v-3.88l-1.03-.02ZM1005.65,150.12c-.85,2.03-1.7,4.06-2.53,6.09-.13.32-.97.89-1.3.89h0c-18.79-1.25-33.07-5.59-44.96-13.67-5.49-3.73-8-7.57-8.13-12.45-.12-4.5,1.93-8.86,5.6-11.98,2.99-2.53,6.64-3.89,10.34-3.89.95,0,1.91.09,2.85.27,2.78.54,5.55,1.62,8.23,2.68,1.16.46,2.33.91,3.5,1.33.56.2,1.08.47,1.63.74.3.15.6.3.92.45l1.15.54.32-1.23c.37-1.44.7-2.85,1.02-4.21.66-2.84,1.29-5.52,2.22-8.05,2.97-8.02,9.25-11.86,16.84-10.27,5.14,1.08,8.53,4.43,10.37,10.23,2.26,7.16,2.14,14.74-.36,22.53-2.17,6.77-4.98,13.49-7.71,19.98ZM1121.41,123.32l13.66-25.96c.42-.79.85-1.58,1.29-2.36.99-1.78,2.02-3.61,2.8-5.55,1.03-2.57,2.66-3.96,5.84-4.96,19.12-6.06,38.21-12.21,57.31-18.36l15.39-4.95-96.28,62.15ZM1161.12,110.32l-2.66-1.57,9.97-4.49-7.31,6.06ZM1179.8,94.82c-.83.68-1.94,1.17-3.01,1.64l-.32.14c-3.84,1.7-7.69,3.38-11.54,5.06-2.78,1.22-5.56,2.43-8.34,3.66l48.1-31.03-1.7,1.41c-7.72,6.38-15.44,12.77-23.19,19.12Z"/>
      <g>
        <path class="cls-1" d="M327.96,212.19h-11.8v-3.8h8.01v-38.86c.03-.4.59-5.4,5.85-9.46l3.78-8.79,3.53,9.42c2.2,1.75,5.61,5.05,5.65,17.81h9.07v-11.16h12.73v6.7h3.59v-9.44c-.07-.54-2.01-17.86,7.97-21.65.87-1.67,3.17-6.37,3.55-10.3l1.75-18.09,2.03,18.07c.4,3.54,1.67,9.11,3.27,10.43.37.3.76.55,1.15.81,3.63,2.37,6.41,5.34,6.41,19.89v10.29h4.1v-6.7h12.21v11.16h10.46v-9.78c.01-.28.28-4.92,5.05-7.64h0c-.06,0,.29-.5.46-1.87l1.74-13.85,2.02,13.82c.12.83.42,1.81.65,2.24,1.54.34,5.65,1.98,6.06,9.79.35,6.52.02,25.93,0,26.75v4.94h10.81v3.8h-14.6v-8.77c0-.23.34-20.13,0-26.52-.3-5.77-2.86-6.25-3.15-6.29-.73-.09-1.32-.44-1.79-.94-.15.11-.28.19-.39.24-2.85,1.61-3.07,4.31-3.08,4.42v13.47s-18.05,0-18.05,0v-11.16h-4.62v6.7h-11.7v-14.09c0-13.65-2.49-15.27-4.69-16.71-.51-.33-1.01-.67-1.49-1.06-1.32-1.09-2.29-3.07-2.99-5.18-1.07,2.6-2.14,4.5-2.22,4.65l-.38.67-.74.22c-6.47,1.88-6.55,13.67-6.03,18.05v13.45s-11.17,0-11.17,0v-6.7h-5.13v11.16h-16.72l.04-1.94c.3-13.2-2.85-15.64-4.18-16.68l-.85-.71-.57-1.52-.46,1.07-.42.31c-4.23,3.07-4.71,6.76-4.73,6.91v42.45ZM430.78,161.35s0,0,0,0c0,0,0,0,0,0Z"/>
        <path class="cls-1" d="M681.78,206.69h-14l.02-1.92c.02-1.71,1.96-170.96-25.11-191.05-2.27-1.69-4.64-2.12-7.23-1.29-35.72,11.33-25.35,190.45-25.24,192.26l.12,2.01h-29.61v-3.8h25.58c-1.16-21.05-8.79-182.43,28-194.09,3.78-1.2,7.36-.57,10.64,1.86,27.3,20.27,26.84,172.3,26.66,192.23h10.16v3.8Z"/>
        <path class="cls-1" d="M318.53,212.19h-15.26V23.73h-10.3v-13.05h-29.17v13.05h-8.93v188.46h-19.92V23.96h-10.3v-13.05h-29.18v13.05h-8.93v188.23h-70.55l.92-2.55c28.21-77.92-9.07-139.26-9.45-139.87l-.63-1.01,15.29-24.2h-26.51l-.55-.96C69.65-1.13,13.92,3.28,3.8,4.49v204.43H0V1.22l1.59-.26c.67-.11,66.76-10.48,96.21,39.82h31.2l-17.71,28.04c4.77,8.42,35.27,66.73,10.09,139.58h61.36V20.17h8.93V7.11h36.77v13.05h10.3v188.23h12.32V19.93h8.93V6.88h36.77v13.05h10.3v188.46h11.46v3.8Z"/>
        <g>
          <path class="cls-1" d="M682.6,206.51l-1.64-3.42c3.37-1.62,7.2-5.83,12.06-11.16,3.7-4.06,7.89-8.67,12.92-13.26,19.3-17.59,32.41-22.3,36.82-23.47v-26.12h-6.53l.08-43.65c.09-.29,2.08-6.88,7.54-7.36,1.94-3.63,3.12-25.96,3.15-46.2l3.8-.06c.61,19.74,1.92,41.39,3.14,46.16,1.63,0,3.87.28,5.66,1.85,1.6,1.41,2.42,3.48,2.42,6.14v44.15h-7.56v25.06h33.59c.24-6,1.36-24.93,6.37-37.61l2.42-6.13,1.83,9.78c.75-4.7,1.84-9.7,3.34-13.02,3.3-7.25,5.68-20.04,5.7-20.17l3.76.39c0,.13-.28,12.91,3.15,18.54,3.09,5.05,4.22,13.06,4.59,16.61h2.62l.96-23.25c0-3.42,1.7-10,7.89-11.77v-10.62c-.2-1-.7-4.47,1.23-7.05.82-1.1,2.43-2.44,5.38-2.6h1.59c3.06.15,4.66,1.5,5.48,2.6,1.93,2.58,1.42,6.05,1.23,7.05v10.62c6.2,1.77,7.9,8.36,7.9,11.85l.95,23.18h2.62c.37-3.55,1.49-11.55,4.59-16.61,2.86-4.68,3.25-14.97,3.15-18.54l3.76-.39c.02.13,2.41,12.92,5.7,20.17,1.54,3.39,2.59,8.2,3.28,12.6l2.07-8.89,2.24,5.65c5.91,14.94,5.75,38.53,5.75,39.53l-.08.53h0s-.17.91.64,2.17c.97,1.49,3.94,4.27,12.92,6.07,7.24,1.46,12.54,1.7,18.15,1.95,7.57.35,15.41.7,28.65,4.02l-.92,3.68c-12.87-3.23-20.51-3.57-27.9-3.91-5.76-.26-11.2-.51-18.72-2.02-8.09-1.63-13.31-4.32-15.52-8.01-1.28-2.13-1.14-3.96-1-4.71,0-1.93-.08-18.27-3.43-31.46l-4.6,19.75-.77-13.05c0-.15-.93-15.2-4.18-22.34-1.2-2.64-2.27-5.89-3.16-9.04-.55,3.01-1.42,6-2.77,8.21-3.48,5.7-4.18,16.54-4.19,16.64l-.11,1.78h-9.79s-1.1-26.89-1.1-26.89c0-.38-.12-7.7-6.25-8.5l-1.65-.22.05-14.47c.16-.73.4-2.92-.53-4.15-.49-.66-1.33-1.01-2.53-1.07h-1.39c-1.11.06-1.94.42-2.44,1.08-.93,1.25-.68,3.46-.52,4.14l.05.44v14.03l-1.65.22c-6.18.81-6.25,8.11-6.25,8.42l-1.11,26.97h-9.79l-.11-1.78c0-.11-.7-10.94-4.19-16.64-1.35-2.21-2.22-5.2-2.77-8.21-.89,3.15-1.96,6.4-3.16,9.04-3.25,7.16-4.46,24.08-4.47,24.25l-1.03,14.82-4.26-22.81c-3.55,13.87-3.92,30.87-3.92,31.07l-.04,1.86h-41.08v-32.65h7.56v-40.35c0-1.53-.38-2.64-1.13-3.29-1.25-1.1-3.34-.92-3.95-.85l-.84.11-.82-.61c-.43-.36-1.36-1.16-2.35-10.62-1.46,11.14-3.51,11.14-4.65,11.14-2.68,0-4.12,3.5-4.45,4.44v39.01h6.53v33.06l-1.61.25c-.14.02-13.93,2.36-36.45,22.88-4.9,4.47-9.03,9-12.67,13.01-5.14,5.64-9.19,10.09-13.23,12.03Z"/>
          <g>
            <rect class="cls-1" x="836.07" y="54.69" width="3.8" height="15.46"/>
            <rect class="cls-1" x="830.75" y="58.64" width="14.43" height="3.8"/>
          </g>
        </g>
        <g>
          <path class="cls-1" d="M461.79,206.69h-17.24v-3.8h13.57l1.31-39.18c-.21-1.39-.38-6.43,7.25-10.53l17.05-134.2,8.24,48.47,9.96-61.87,11.96,79.84,3.54-9.21,5.08,10.15,10.02-79.92,12.89,61.48,6.73-49.53,19.43,131.47c1.81.88,5.17,3.14,6.52,8.18,1.63,6.06,4.41,46.47,4.53,48.18l-3.79.26c-.98-14.42-3.18-42.89-4.41-47.46-1.28-4.77-4.96-5.95-5.12-6l-1.14-.35-.19-1.19-15.67-106.07-6.09,44.81-12.75-60.8-8.76,69.83-6.83-13.66-5.62,14.6-10.47-69.92-9.73,60.41-7.79-45.87-14.09,110.85-.92.45c-6.78,3.3-6.12,6.85-6.09,7l.05.51-1.43,43.05Z"/>
          <circle class="cls-1" cx="501.7" cy="8.66" r="3.93"/>
          <circle class="cls-1" cx="484.39" cy="21.48" r="3.93"/>
          <circle class="cls-1" cx="551.98" cy="21.48" r="3.93"/>
          <circle class="cls-1" cx="532.82" cy="8.66" r="3.93"/>
        </g>
      </g>
    </g>
  </g>
</svg>